HIERARCHY
ROOT RootJoint
{
    OFFSET   0.000000   0.000000   0.000000
    CHANNELS 6 Xposition Yposition Zposition Xrotation Yrotation Zrotation
    JOINT lHip
    {
        OFFSET   0.100000  -0.051395   0.000000
        CHANNELS 3 Xrotation Yrotation Zrotation
        JOINT lKnee
        {
            OFFSET   0.000000  -0.410000   0.000000
            CHANNELS 3 Xrotation Yrotation Zrotation
            JOINT lAnkle
            {
                OFFSET   0.000000  -0.390000   0.000000
                CHANNELS 3 Xrotation Yrotation Zrotation
                JOINT lToeJoint
                {
                    OFFSET   0.000000  -0.050000   0.130000
                    CHANNELS 3 Xrotation Yrotation Zrotation
                    End Site
                    {
                        OFFSET   0.010000   0.002000   0.060000
                    }
                }
            }
        }
    }
    JOINT pelvis_lowerback
    {
        OFFSET   0.000000   0.093605   0.000000
        CHANNELS 3 Xrotation Yrotation Zrotation
        JOINT lowerback_torso
        {
            OFFSET   0.000000   0.100000   0.000000
            CHANNELS 3 Xrotation Yrotation Zrotation
            JOINT lTorso_Clavicle
            {
                OFFSET   0.001000   0.157500   0.000000
                CHANNELS 3 Xrotation Yrotation Zrotation
                JOINT lShoulder
                {
                    OFFSET   0.117647   0.000000   0.000000
                    CHANNELS 3 Xrotation Yrotation Zrotation
                    JOINT lElbow
                    {
                        OFFSET   0.245000   0.000000   0.000000
                        CHANNELS 3 Xrotation Yrotation Zrotation
                        JOINT lWrist
                        {
                            OFFSET   0.240000   0.000000   0.000000
                            CHANNELS 3 Xrotation Yrotation Zrotation
                            End Site
                            {
                                OFFSET   0.116353  -0.002500   0.000000
                            }
                        }
                    }
                }
            }
            JOINT rTorso_Clavicle
            {
                OFFSET  -0.001000   0.157500   0.000000
                CHANNELS 3 Xrotation Yrotation Zrotation
                JOINT rShoulder
                {
                    OFFSET  -0.117647   0.000000   0.000000
                    CHANNELS 3 Xrotation Yrotation Zrotation
                    JOINT rElbow
                    {
                        OFFSET  -0.245000   0.000000   0.000000
                        CHANNELS 3 Xrotation Yrotation Zrotation
                        JOINT rWrist
                        {
                            OFFSET  -0.240000   0.000000   0.000000
                            CHANNELS 3 Xrotation Yrotation Zrotation
                            End Site
                            {
                                OFFSET  -0.116353  -0.002500   0.000000
                            }
                        }
                    }
                }
            }
            JOINT torso_head
            {
                OFFSET   0.000000   0.282350   0.000000
                CHANNELS 3 Xrotation Yrotation Zrotation
                End Site
                {
                    OFFSET   0.000000   0.192650   0.000000
                }
            }
        }
    }
    JOINT rHip
    {
        OFFSET  -0.100000  -0.051395   0.000000
        CHANNELS 3 Xrotation Yrotation Zrotation
        JOINT rKnee
        {
            OFFSET   0.000000  -0.410000   0.000000
            CHANNELS 3 Xrotation Yrotation Zrotation
            JOINT rAnkle
            {
                OFFSET   0.000000  -0.390000   0.000000
                CHANNELS 3 Xrotation Yrotation Zrotation
                JOINT rToeJoint
                {
                    OFFSET   0.000000  -0.050000   0.130000
                    CHANNELS 3 Xrotation Yrotation Zrotation
                    End Site
                    {
                        OFFSET  -0.010000   0.002000   0.060000
                    }
                }
            }
        }
    }
}
MOTION
Frames: 17
Frame Time:   0.016667
 -0.037765   0.900355   2.153179  -1.454242  -0.423035  -1.633741 -28.622329   9.349421   3.200961  66.957159   3.183211   2.591630   9.054743   2.249194   7.480744  -0.000489   0.003456  -0.002666   3.657680  -0.401740   1.047504   3.303588  -1.872489   0.066316   0.002667   7.274192 -19.723335  16.968961 -28.316781 -51.516071   0.228981 -11.126516   0.029378   5.297154   6.828201  -2.414793   3.844847   2.342351  21.116533   7.830580  40.530674  43.576519   0.230574  18.694367  -2.346155  -4.805562  -8.361796  -1.560898   2.305589   0.338916   0.283851  -7.280700   0.441551   6.907911  13.096325  -3.018139   4.181902  -4.740147  -0.601679  -9.609321  -0.001800  -0.000400   0.005200
 -0.040355   0.900451   2.170299  -1.392917  -1.133963  -1.526788 -30.373909   9.663071   3.078924  64.833242   3.102379   2.491818   6.108492   1.998362   7.977641  -0.009900   0.006280  -0.033200   3.758960  -0.447104   1.213369   3.269558  -1.552317  -0.452369  -0.149053   7.899196 -19.602221  17.375462 -27.369433 -52.068929   0.233696 -10.926363  -0.188207   6.016898   6.690427  -2.192245   3.982569   2.764363  21.219737   6.123868  41.173912  42.971887   0.233561  19.504136  -2.629028  -5.295509  -8.211532  -1.709788   2.280364   0.366706   0.338864  -5.792231   0.382433   6.826372  12.480283  -2.571925   3.988282  -5.599203  -0.300381  -9.021918  -0.001200   0.000000   0.002500
 -0.040298   0.900414   2.188216  -1.310782  -1.808568  -1.285111 -31.423757   9.497179   2.731779  61.500292   3.176608   1.810303   4.116525   1.855546   7.725689  -0.054402   0.007747  -0.174201   3.837846  -0.356208   1.383537   3.252056  -0.713944  -0.988105  -0.014343   7.875076 -19.673290  18.006362 -27.202085 -52.152248   0.245664 -10.898203  -0.364906   6.051677   6.884584  -2.281613   3.849583   2.695891  21.102833   4.527783  41.229440  43.332782   0.226365  19.904829  -2.840102  -4.887362  -7.785082  -1.920433   2.253771   0.331712   0.300542  -4.352631   0.751857   6.642644  11.802293  -2.289433   3.817620  -6.395537  -0.053341  -8.894444  -0.002200   0.000000   0.005000
 -0.040157   0.900080   2.206223  -1.220390  -2.459006  -1.060298 -32.330663   9.343594   2.406339  57.833494   3.293940   1.124357   2.530016   1.765312   7.489693  -0.100636   0.009658  -0.319867   3.885623  -0.263488   1.557946   3.275110   0.097885  -1.497325   0.121555   7.841776 -19.758859  18.615949 -27.021792 -52.249555   0.256422 -10.912561  -0.497219   5.951386   7.093470  -2.505092   3.714859   2.640722  20.971752   2.958946  41.278271  43.736959   0.219226  20.289076  -3.057586  -4.497308  -7.377802  -2.156104   2.219733   0.297888   0.265365  -2.960668   1.302028   6.475059  11.191692  -2.136044   3.669572  -7.246986   0.096690  -8.765151  -0.003733  -0.000133   0.006300
 -0.039807   0.899004   2.224459  -1.114296  -3.049560  -0.879175 -32.879400   9.208897   2.140529  53.331205   3.469938   0.424300   1.958182   1.788814   7.304074  -0.151204   0.012532  -0.477201   3.856008  -0.166773   1.743260   3.386467   0.842519  -1.941871   0.260414   7.785695 -19.880717  19.173356 -26.808090 -52.379019   0.263944 -11.033139  -0.518585   5.514142   7.342015  -3.062482   3.576032   2.618486  20.805521   1.460923  41.320197  44.245774   0.209840  20.632183  -3.290350  -4.153976  -7.016355  -2.449490   2.167123   0.266966   0.238062  -1.688921   2.312509   6.353202  10.747254  -2.309206   3.569927  -8.234920   0.006643  -8.639638  -0.006600  -0.000600   0.004600
 -0.039409   0.897573   2.242770  -0.975798  -3.592153  -0.724108 -33.299980   9.097966   1.888801  48.504464   3.642882  -0.219257   1.700237   1.817470   7.099092  -0.173004   0.014011  -0.544201   3.784402  -0.069678   1.950192   3.507984   1.545850  -2.371367   0.396985   7.704914 -19.997924  19.710548 -26.605048 -52.522310   0.271165 -11.161430  -0.528921   5.021371   7.521367  -3.688965   3.439237   2.586331  20.643783  -0.016142  41.319301  44.792388   0.201519  20.975346  -3.516187  -3.778830  -6.669095  -2.727509   2.112079   0.233990   0.215230  -0.484884   3.282734   6.234795  10.416696  -2.479334   3.479627  -9.294758  -0.066860  -8.578700  -0.009200  -0.001100   0.003100
 -0.038912   0.895013   2.261288  -0.719463  -3.967742  -0.658623 -33.349947   9.067911   1.672804  42.709258   3.628035  -0.686062   2.291568   1.815736   6.795005  -0.078012   0.009362  -0.245204   3.576517   0.027153   2.239212   3.619345   2.113547  -2.761675   0.523528   7.535325 -20.082297  20.189226 -26.455093 -52.702063   0.278528 -11.278079  -0.539551   4.432392   7.396494  -4.464893   3.312258   2.500160  20.514087  -1.430460  41.175583  45.439710   0.194446  21.335090  -3.706969  -3.262550  -6.355582  -2.916693   2.054771   0.191559   0.207206   0.486419   3.915897   6.182301  10.476656  -2.508843   3.413028 -10.588356   0.031381  -8.765881  -0.010200  -0.001600   0.003600
 -0.038392   0.892247   2.279920  -0.442308  -4.314263  -0.622500 -33.261600   9.033750   1.404476  36.642728   3.607807  -1.015948   2.905745   1.802789   6.302414  -0.002100   0.006000  -0.006400   3.342554   0.124648   2.539570   3.722431   2.648964  -3.109508   0.650801   7.368493 -20.168630  20.669184 -26.358504 -52.877046   0.286705 -11.379696  -0.569581   3.889833   7.308548  -5.140969   3.185664   2.414097  20.372502  -2.783867  40.990037  46.092065   0.188489  21.705257  -3.897577  -2.755197  -6.027995  -3.111149   1.996137   0.150760   0.194934   1.459163   4.457519   6.132335  10.514778  -2.515096   3.358927 -11.875958   0.155244  -8.962752  -0.011000  -0.002000   0.004000
 -0.037790   0.888655   2.299004  -0.083989  -4.545902  -0.709146 -32.619924   8.979332   0.927258  29.492369   3.381017  -0.816796   3.610677   1.747080   5.056088  -0.002600   0.006000  -0.008400   3.005648   0.227368   2.884385   3.779091   3.057931  -3.283175   0.781893   7.213228 -20.264047  21.154691 -26.471211 -53.028223   0.298165 -11.421190  -0.677255   3.538422   7.340786  -5.413760   3.061117   2.327679  20.183904  -3.906997  40.674063  46.780532   0.183287  22.117053  -4.086261  -2.285530  -5.638982  -3.318730   1.932213   0.116478   0.165805   2.432925   4.636442   6.129531  10.465675  -2.428072   3.354754 -13.140220   0.369667  -9.203688  -0.011000  -0.002000   0.004000
 -0.037245   0.884877   2.318306   0.283571  -4.772588  -0.820799 -31.747413   8.592031   0.455751  22.078444   3.161091  -0.725116   4.121162   1.683454   3.958484  -0.003100   0.006000  -0.010267   2.638928   0.331431   3.215820   3.826383   3.453167  -3.408685   0.911297   7.052633 -20.352700  21.655894 -26.663084 -53.155027   0.311411 -11.445256  -0.812791   3.342179   7.435827  -5.559734   2.938597   2.209567  20.001412  -4.925957  40.349360  47.444924   0.179452  22.527071  -4.257714  -1.890626  -5.250664  -3.511389   1.872764   0.085117   0.131266   3.500619   4.715321   6.135824  10.263896  -2.287825   3.352118 -14.341799   0.649262  -9.544263  -0.010333  -0.002133   0.006000
 -0.036841   0.880632   2.338155   0.674394  -4.986511  -0.997126 -30.305583   7.376658   0.017752  14.000720   3.019345  -0.851978   4.148047   1.632625   3.230993  -0.003600   0.006000  -0.011800   2.198619   0.441739   3.513066   3.847568   3.814447  -3.412874   1.036963   6.879078 -20.425017  22.196894 -27.050784 -53.220388   0.329333 -11.425748  -1.017961   3.533160   7.684684  -5.389535   2.821375   2.011562  19.834311  -5.701381  40.020363  48.068151   0.176547  22.932617  -4.385211  -1.684425  -4.860772  -3.661026   1.824531   0.061017   0.083272   4.802457   4.544774   6.173898   9.680467  -2.014544   3.354951 -15.385697   1.087486 -10.139091  -0.008000  -0.002600   0.013000
 -0.036422   0.876259   2.358238   1.035797  -5.206939  -1.170082 -28.943773   5.927442  -0.305560   6.418692   2.992581  -1.024528   3.874181   1.626451   2.312353  -0.004100   0.006100  -0.013400   1.789259   0.544311   3.772768   3.850477   4.165439  -3.373295   1.162053   6.705201 -20.492581  22.707904 -27.454255 -53.291545   0.345891 -11.384258  -1.204354   3.725285   7.938011  -5.299030   2.703353   1.818725  19.673522  -6.379309  39.652467  48.674281   0.175367  23.333620  -4.492616  -1.456661  -4.476586  -3.829381   1.783033   0.039943   0.037395   6.097780   4.343305   6.189670   9.199372  -1.709268   3.362270 -16.369779   1.535869 -10.648607  -0.088922  -0.003937   0.182311
 -0.035885   0.871566   2.379038   1.271731  -5.454726  -1.307607 -28.084072   3.909774  -0.285127   1.083056   3.328285  -1.219794   2.595854   1.815266   0.483519  -0.004600   0.006600  -0.015400   1.534858   0.620514   3.893361   3.790484   4.488732  -3.206625   1.287041   6.535632 -20.548748  23.078105 -27.841482 -53.422855   0.354905 -11.272054  -1.287819   3.770643   8.144899  -5.650684   2.581714   1.677630  19.532959  -6.785123  39.147896  49.250381   0.177986  23.718221  -4.536237  -1.069099  -4.115560  -4.087682   1.764045   0.027945   0.005430   7.273679   4.113302   6.090620   9.279925  -1.329048   3.374496 -17.193398   1.925996 -10.738287  -0.503471  -0.012164   0.998836
 -0.035194   0.866992   2.399870   1.488139  -5.742773  -1.384869 -27.537308   2.130207  -0.272282  -3.196305   3.669016  -1.333555   1.080022   2.031499  -1.101172  -0.005100   0.007000  -0.017400   1.330348   0.701862   3.947278   3.700958   4.821062  -3.030608   1.414767   6.381092 -20.619986  23.408858 -28.221657 -53.535886   0.364805 -11.157584  -1.382625   3.872946   8.364277  -6.044405   2.459611   1.535224  19.396826  -7.068710  38.678884  49.759697   0.180915  24.079140  -4.573880  -0.707416  -3.766592  -4.323064   1.741705   0.021926  -0.030919   8.377150   3.917630   5.884366   9.519201  -0.921847   3.421200 -17.933295   2.293093 -10.713661  -1.090634  -0.031763   1.698789
 -0.033895   0.862895   2.420831   1.629057  -6.189602  -1.223823 -28.239776   1.302198  -0.404748  -3.248145   3.969042  -1.236148  -1.407964   2.227214  -1.720200  -0.005600   0.007000  -0.019400   1.326222   0.805732   3.733267   3.495908   5.189722  -2.817835   1.554056   6.286908 -20.752762  23.580784 -28.571020 -53.583698   0.377841 -11.034025  -1.522834   4.200061   8.632715  -6.606297   2.336685   1.386643  19.279270  -6.896560  38.363690  50.033191   0.183945  24.345340  -4.587107  -0.454112  -3.459910  -4.459169   1.705990   0.039797  -0.084782   9.193145   3.860870   5.232586  10.392647  -0.405102   3.603016 -18.341120   2.561586 -10.250762  -2.368695  -0.078706   1.932123
 -0.032510   0.859364   2.441601   1.767083  -6.607111  -0.881536 -28.616373   0.804313  -0.734085  -3.277839   4.361552  -1.192148  -2.596482   2.480013  -1.834943  -0.006233   0.007000  -0.021267   1.431552   0.894773   3.286362   3.193595   5.561980  -2.592488   1.691204   6.171863 -20.880062  23.703428 -28.959616 -53.577420   0.390893 -10.881893  -1.668012   4.336265   8.904759  -6.998853   2.219693   1.190266  19.208606  -6.583855  38.072952  50.231183   0.187624  24.566739  -4.579419  -0.188307  -3.149064  -4.598192   1.650712   0.051244  -0.123275   9.961095   3.772163   4.383036  11.311941   0.108234   3.791329 -18.534440   2.804248  -9.823344  -3.874826  -0.129914   2.023343
 -0.030904   0.857249   2.461895   1.898052  -6.951019  -0.087949 -28.171674   1.124164  -1.535579  -3.250381   4.985429  -1.282569  -0.544430   2.844140  -0.715981  -0.007200   0.007000  -0.022800   1.810265   0.942339   2.256996   2.650004   5.943325  -2.336374   1.823287   6.005185 -20.993947  23.703217 -29.446027 -53.437721   0.403734 -10.658283  -1.825632   3.988716   9.192508  -6.962747   2.118349   0.873804  19.255477  -5.923567  37.842029  50.242533   0.192691  24.676137  -4.519320   0.107818  -2.826988  -4.742737   1.546492   0.046556  -0.123374  10.608123   3.613658   3.038387  12.348245   0.609759   4.006996 -18.187338   2.990714  -9.489615  -5.951697  -0.174539   1.760520
